<svg xmlns="http://www.w3.org/2000/svg" width="79" height="69" viewBox="0 0 79 69">
    <g fill="#000" fill-rule="evenodd" opacity=".231">
        <path d="M64.188 57h-7.885a2.473 2.473 0 0 1-2.47-2.478 2.473 2.473 0 0 1 2.47-2.479h7.885c5.444 0 9.874-4.445 9.874-9.913 0-5.467-4.43-9.913-9.874-9.913h-.249c-.74 0-1.442-.334-1.91-.91a2.484 2.484 0 0 1-.51-2.06c.132-.655.2-1.323.2-1.986 0-5.467-4.43-9.913-9.875-9.913-1.58 0-3.146.414-4.654 1.234a2.468 2.468 0 0 1-3.53-1.445c-2.263-7.284-8.894-12.18-16.504-12.18-9.529 0-17.281 7.783-17.281 17.347 0 2.648.6 5.213 1.78 7.624a2.487 2.487 0 0 1-1.134 3.323c-3.444 1.682-5.584 5.087-5.584 8.88 0 5.467 4.43 9.912 9.875 9.912h9.226a2.473 2.473 0 0 1 2.469 2.479A2.473 2.473 0 0 1 24.037 57h-9.224C6.643 57 0 50.33 0 42.13c0-4.908 2.37-9.375 6.314-12.132a22.04 22.04 0 0 1-1.377-7.694C4.938 10.005 14.905 0 27.157 0a22.1 22.1 0 0 1 20.25 13.108 14.12 14.12 0 0 1 4.437-.717c8.168 0 14.812 6.67 14.812 14.87l-.001.206C73.653 28.65 79 34.776 79 42.13 79 50.33 72.356 57 64.187 57z"/>
        <path d="M39.5 69a2.5 2.5 0 0 1-2.5-2.5v-30a2.5 2.5 0 1 1 5 0v30a2.5 2.5 0 0 1-2.5 2.5z"/>
        <path d="M46.5 47c-.64 0-1.28-.234-1.768-.703L39 40.794l-5.733 5.503a2.573 2.573 0 0 1-3.535 0 2.332 2.332 0 0 1 0-3.394l7.5-7.2a2.573 2.573 0 0 1 3.535 0l7.5 7.2a2.332 2.332 0 0 1 0 3.394A2.546 2.546 0 0 1 46.5 47z"/>
    </g>
</svg>
