<svg width="24" height="24" viewBox="0 0 24 24" fill="none" xmlns="http://www.w3.org/2000/svg">
<g clip-path="url(#clip0_2311_56097)">
<path fill-rule="evenodd" clip-rule="evenodd" d="M15.5428 21.0037H8.45698C7.28078 21.0037 6.30288 20.0981 6.21267 18.9254L5.24707 6.37256H18.7527L17.7871 18.9254C17.6969 20.0981 16.719 21.0037 15.5428 21.0037V21.0037Z" stroke="#A5ADBA" stroke-width="1.5" stroke-linecap="round" stroke-linejoin="round"/>
<path fill-rule="evenodd" clip-rule="evenodd" d="M15.5428 21.0037H8.45698C7.28078 21.0037 6.30288 20.0981 6.21267 18.9254L5.24707 6.37256H18.7527L17.7871 18.9254C17.6969 20.0981 16.719 21.0037 15.5428 21.0037V21.0037Z" stroke="black" stroke-opacity="0.68" stroke-width="1.5" stroke-linecap="round" stroke-linejoin="round"/>
<path d="M20.0032 6.37277H3.99658" stroke="#A5ADBA" stroke-width="1.5" stroke-linecap="round" stroke-linejoin="round"/>
<path d="M20.0032 6.37277H3.99658" stroke="black" stroke-opacity="0.68" stroke-width="1.5" stroke-linecap="round" stroke-linejoin="round"/>
<path fill-rule="evenodd" clip-rule="evenodd" d="M9.1865 2.99634H14.8138C15.4354 2.99634 15.9393 3.50023 15.9393 4.12181V6.37274H8.06104V4.12181C8.06104 3.50023 8.56492 2.99634 9.1865 2.99634Z" stroke="#A5ADBA" stroke-width="1.5" stroke-linecap="round" stroke-linejoin="round"/>
<path fill-rule="evenodd" clip-rule="evenodd" d="M9.1865 2.99634H14.8138C15.4354 2.99634 15.9393 3.50023 15.9393 4.12181V6.37274H8.06104V4.12181C8.06104 3.50023 8.56492 2.99634 9.1865 2.99634Z" stroke="black" stroke-opacity="0.68" stroke-width="1.5" stroke-linecap="round" stroke-linejoin="round"/>
<path d="M13.9694 10.8745V16.5019" stroke="#A5ADBA" stroke-width="1.5" stroke-linecap="round" stroke-linejoin="round"/>
<path d="M13.9694 10.8745V16.5019" stroke="black" stroke-opacity="0.68" stroke-width="1.5" stroke-linecap="round" stroke-linejoin="round"/>
<path d="M10.0305 10.8745V16.5019" stroke="#A5ADBA" stroke-width="1.5" stroke-linecap="round" stroke-linejoin="round"/>
<path d="M10.0305 10.8745V16.5019" stroke="black" stroke-opacity="0.68" stroke-width="1.5" stroke-linecap="round" stroke-linejoin="round"/>
</g>
<defs>
<clipPath id="clip0_2311_56097">
<rect width="24" height="24" fill="white"/>
</clipPath>
</defs>
</svg>
